<svg width="40" height="40" viewBox="0 0 40 40" fill="none" xmlns="http://www.w3.org/2000/svg">
<rect width="40" height="40" rx="20" fill="white"/>
<path d="M13.1426 20.248H15.4863V21.291H13.1426V23.6582H12.0996V21.291H9.76172V20.248H12.0996V17.8574H13.1426V20.248ZM19.5176 19.6445C20.0684 19.6445 20.5527 19.7441 20.9707 19.9434C21.3926 20.1387 21.7207 20.4277 21.9551 20.8105C22.1895 21.1895 22.3066 21.6543 22.3066 22.2051C22.3066 22.8066 22.1797 23.3262 21.9258 23.7637C21.6719 24.1973 21.2988 24.5312 20.8066 24.7656C20.3145 25 19.7148 25.1172 19.0078 25.1172C18.5586 25.1172 18.1387 25.0781 17.748 25C17.3613 24.9219 17.0273 24.8047 16.7461 24.6484V23.4062C17.0391 23.5703 17.3906 23.7051 17.8008 23.8105C18.2109 23.9121 18.6035 23.9629 18.9785 23.9629C19.377 23.9629 19.7188 23.9043 20.0039 23.7871C20.2891 23.6699 20.5078 23.4902 20.6602 23.248C20.8164 23.0059 20.8945 22.6992 20.8945 22.3281C20.8945 21.8359 20.7363 21.457 20.4199 21.1914C20.1074 20.9219 19.6172 20.7871 18.9492 20.7871C18.7148 20.7871 18.4648 20.8086 18.1992 20.8516C17.9375 20.8906 17.7188 20.9336 17.543 20.9805L16.9395 20.623L17.2617 16.4336H21.7148V17.6465H18.4746L18.2871 19.7793C18.4277 19.748 18.5957 19.7188 18.791 19.6914C18.9863 19.6602 19.2285 19.6445 19.5176 19.6445ZM29.2617 20.084C29.2617 20.5918 29.2246 21.0898 29.1504 21.5781C29.0801 22.0664 28.9551 22.5234 28.7754 22.9492C28.5996 23.375 28.3555 23.752 28.043 24.0801C27.7344 24.4043 27.3438 24.6582 26.8711 24.8418C26.3984 25.0254 25.8281 25.1172 25.1602 25.1172C24.9922 25.1172 24.7969 25.1074 24.5742 25.0879C24.3555 25.0723 24.1758 25.0488 24.0352 25.0176V23.8691C24.1836 23.9121 24.3496 23.9473 24.5332 23.9746C24.7207 23.998 24.9062 24.0098 25.0898 24.0098C25.8125 24.0098 26.375 23.875 26.7773 23.6055C27.1836 23.3359 27.4707 22.9648 27.6387 22.4922C27.8105 22.0195 27.9082 21.4824 27.9316 20.8809H27.8613C27.748 21.0684 27.6055 21.2402 27.4336 21.3965C27.2617 21.5488 27.0488 21.6719 26.7949 21.7656C26.541 21.8555 26.2324 21.9004 25.8691 21.9004C25.377 21.9004 24.9473 21.7969 24.5801 21.5898C24.2168 21.3828 23.9336 21.082 23.7305 20.6875C23.5312 20.2891 23.4316 19.8105 23.4316 19.252C23.4316 18.6465 23.5469 18.125 23.7773 17.6875C24.0078 17.25 24.334 16.9141 24.7559 16.6797C25.1777 16.4414 25.6738 16.3223 26.2441 16.3223C26.6738 16.3223 27.0703 16.4004 27.4336 16.5566C27.8008 16.709 28.1211 16.9434 28.3945 17.2598C28.668 17.5723 28.8809 17.9648 29.0332 18.4375C29.1855 18.9062 29.2617 19.4551 29.2617 20.084ZM26.2617 17.459C25.8281 17.459 25.4746 17.6055 25.2012 17.8984C24.9277 18.1875 24.791 18.6328 24.791 19.2344C24.791 19.7227 24.9082 20.1094 25.1426 20.3945C25.377 20.6797 25.7363 20.8223 26.2207 20.8223C26.5566 20.8223 26.8457 20.7539 27.0879 20.6172C27.334 20.4766 27.5234 20.2988 27.6562 20.084C27.793 19.8691 27.8613 19.6504 27.8613 19.4277C27.8613 19.1973 27.8281 18.9668 27.7617 18.7363C27.6992 18.5059 27.6016 18.2949 27.4688 18.1035C27.3359 17.9121 27.168 17.7578 26.9648 17.6406C26.7656 17.5195 26.5312 17.459 26.2617 17.459Z" fill="#2F2B43" fill-opacity="0.5"/>
</svg>
